<?xml version="1.0" encoding="UTF-8" standalone="no"?><svg version="1.1" width="1431.5536" height="1360.5994" xml:space="preserve" viewBox="0 0 1431.5536 1360.5994" xmlns="http://www.w3.org/2000/svg" xmlns:svg="http://www.w3.org/2000/svg"><path d="M739.24808.03300243C681.69231 1.1175661 628.70763 29.093562 595.2598 76.529096 556.55981 125.92908 516.64561 176.9064 448.31448 187.48027c-41.88863 5.11411-81.16908 24.75784-110.03023 55.72346-29.36509 31.36952-46.35075 72.46028-48.15478 115.45623-.90896 20.76996 2.43556 40.09326 7.76278 57.36132 0 0 .74504 2.36662 1.7337 5.44074 1.15839 3.60187 2.59412 7.25761 4.28305 9.64784 2.50164 3.54038 6.17289 5.40946 10.19104 5.99666 4.5637.66693 10.28034-.5792 14.04257-5.15945 1.26412-1.53898 2.31766-2.95001 3.06363-5.75066.31528-1.1837 1.21314-3.70134.31546-7.8058-.92309-4.22062-2.1836-5.97608-3.26386-9.92597-5.44762-16.88085-7.68198-32.79656-7.02881-48.47265 1.59615-35.50385 15.70483-69.61456 39.93901-95.54412 24.03595-25.73142 56.45011-41.98598 91.25582-46.17463l.01562-.00196.4961-.09961.01758-.0039c80.74816-12.43053 126.73558-71.142 167.13086-122.83594l.00195-.001953c.00197-.002526.00388-.005286.00586-.007812l.50195-.603516.00977-.013672c29.4226-41.98955 77.58711-65.774064 128.8527-63.480078 15.73083.707887 30.97972 3.81111 45.33188 9.114286 22.82171 8.432707 43.09947 22.482971 59.1439 40.339102 14.61598 16.266394 25.71887 35.691143 32.0315 56.904653 4.71062 15.82996 6.78969 32.50696 6.06672 49.47555-1.29604 30.20775-13.37362 60.57797-34.975 89.47841-26.83657 35.94895-39.77909 70.74-39.67881 106.03917.10033 38.6246 18.85848 78.32324 51.62181 110.18483 8.2163 8.00345 17.04278 15.19062 26.29089 21.5084 25.52985 17.44052 55.42702 28.68686 83.94527 31.50358 17.75238 1.88778 37.84319 1.63993 58.58119-1.16945 8.5011-1.15165 14.098-9.30992 12.8187-17.87744-1.2794-8.5675-9.1251-14.02851-17.6282-12.89419-18.2758 2.438-35.79716 2.565-50.98785.94662-32.49559-3.48879-65.52471-19.34863-91.664-44.78952-26.33641-25.63806-41.67845-57.74989-41.778-87.41478-.09962-28.29572 10.75361-56.90591 33.51872-87.35922 25.63886-34.35203 39.42903-70.13331 41.13311-106.72086 2.10453-48.10356-14.48803-94.212532-47.05813-129.789063C843.40049 23.029292 798.99665 2.2801058 750.793.17558056c-3.86468-.16911852-7.71464-.21475477-11.54492-.14257813Z" fill="#ff6700"/><path d="M556.48642 777.68523c9.16549 0 16.93283-6.52669 22.99137-17.71529 4.81576-9.32384 7.76736-19.58007 8.69943-29.99169h102.37376c-3.10695 34.96441-20.03977 67.13166-46.75949 89.66428-53.4394 45.37603-132.82178 42.26807-182.53285-7.30369-52.50733-52.3689-52.50733-137.37125-.15534-189.89556l.15534-.1554c25.32156-25.17438 59.49794-39.31553 95.22778-39.31553 69.44017 0 127.38464 52.6797 134.06456 121.67612H588.17722c-1.08741-10.56702-4.03901-20.66785-8.85478-30.14709-6.05854-11.18861-13.82588-17.71529-22.83602-17.71529-9.16549 0-16.93283 6.52668-22.99137 17.71529-5.90321 11.18861-9.47618 25.79597-9.47618 42.73428 0 17.09371 3.57297 31.54566 9.47618 42.73428 6.21388 11.03321 13.98124 17.71529 22.99137 17.71529Z" fill="#ff6700"/><path d="M60.478146 621.97708c25.32159-25.17437 59.497954-39.31553 95.227774-39.31553 35.72984 0 69.90622 14.14116 95.2278 39.31553 25.32158 25.17438 39.55817 59.36179 39.55817 95.10318v122.76392H188.27347V719.50002c0-14.76275-3.67297-27.44949-9.57616-37.08413-6.05854-9.63463-13.8259-15.32864-22.99139-15.48404-9.16547 0-16.93283 5.84954-22.99137 15.48417-5.90317 9.79003-9.37587 22.07706-9.37587 36.68442v120.74374H21.075676V717.08026c0-36.98456 15.16832-71.01659 39.40247-95.10318Z" fill="#ff6700"/><path d="M400.11017 545.58345c8.01163-9.76942 12.83694-22.25319 12.83694-35.91425 0-15.69515-6.36923-29.83631-16.62213-40.09253-10.71895-10.72242-25.16623-16.62753-40.23489-16.62753-31.22479-.15539-56.70171 25.17438-56.85706 56.40925v.31081c0 15.69512 6.36925 29.93599 16.62215 40.19222l12.58312 12.5872c20.97184 20.97864 22.36995 26.21834 2.48554 46.10921l-11.34034 11.34402c-9.78686 9.63462-15.36317 22.9434-15.20782 36.61835v183.32398h103.44499V656.5202c0-13.67495-5.43715-26.88374-15.06867-36.51836l-11.49569-11.44401c-18.93844-18.94455-18.57115-24.83028-.37454-43.33784 2.93212-2.95696 5.78282-5.99492 8.72691-8.93997 3.50866-3.5609 7.28985-6.8581 10.50149-10.69657Z" fill="#ff6700"/><path d="M960.98858 822.17437c0-3.26334-.932-6.62712-2.6407-9.42427l-56.0252-84.43608 38.882-70.33969c14.1018-23.91978 6.2138-55.47687-18.0203-69.77343h-.1553c-24.3895-14.29656-55.6143-6.21588-70.0616 18.0261l-46.1938 82.516-.09961-55.01068c-.05093-28.12686-22.99137-50.97032-51.1092-50.97032-28.27317 0-51.10919 22.84341-51.10919 50.97032v206.21231h102.318l-.1-80.80663 53.9058 80.75167h82.389c9.9421 0 18.0201-7.92526 18.0201-17.7153Z" fill="#ff6700"/><path d="M1124.8496 465.8455c-28.0383 0-50.625 22.52744-50.625 50.49219 0 27.96477 22.5867 50.49219 50.625 50.49219 28.0385 0 50.625-22.52742 50.625-50.49219 0-27.96475-22.5865-50.49219-50.625-50.49219Zm.0469 116.86524c-16.6646 0-30.8912 7.59995-40.2618 21.09375-6.89 9.92189-10.9941 23.0291-10.9941 38.64453v123.93555c0 16.68057-9.7065 19.00639-12.8379.77734-1.6909-9.84392-5.4201-17.72183-10.3008-23.6582-8.3955-10.21144-20.3969-14.87712-32.7207-15.35743-18.34597-.71501-37.16072 8.06853-45.68351 22.53321-5.4496 9.2489-7.77241 18.36178-7.63282 27.0957.1558 9.7522 3.24479 18.94417 8.52149 27.35547 3.2757 5.22171 7.2162 9.82642 11.2168 13.76367 9.77559 9.6206 18.77984 14.61364 21.23624 15.96485 4.2566 2.34144 8.9933 4.44293 14.0957 6.27734 14.9933 5.39034 33.1476 8.46289 51.5782 8.46289 34.6788 0 58.4625-8.10586 75.2246-22.80469 11.496-10.08084 20.3234-24.42939 24.8222-41.50586 3.6075-13.69323 4.4182-23.1801 4.461-37.1289l.0859-28.1543.2559-27.91797-.0879-58.56055c-.042-27.93029-22.5773-50.8164-50.9785-50.8164Z" fill="#1cbac9"/><path d="M1293.8756 839.94349V702.84263c0-5.27554 1.7654-13.21867 5.8062-19.97984 3.259-5.45293 7.4416-10.04432 14.4849-12.03294 5.2769-1.48989 10.37-.80719 15.7055.54941 5.3384 1.35733 10.8109 3.62092 16.7024 5.84676 42.5619 16.0805 75.7492-5.08539 80.851-32.96414 5.0332-27.50385-13.3086-54.2396-40.9893-59.25547-17.4616-3.16411-31.5499-2.23425-46.1947 2.71656-13.476 4.55573-26.0218 12.42915-39.7561 22.94449-3.1381 2.40262-6.0476 5.09317-8.9658 7.7458-6.627-20.52641-25.7172-35.63076-48.7278-35.63076-19.3687 0-36.0161 10.58556-44.6824 26.13931-4.0664 7.29818-6.4649 15.7749-6.507 24.67758l-.0769 5.70154v200.64209Z" fill="#1cbac9"/><path d="M119.67256 259.07524c-63.528354 0-115.0947946 51.5325-115.2109446 115.02148 0 30.75791 11.9626406 59.65863 33.7968706 81.36328 21.7181 21.70462 50.638 33.66016 81.298834 33.66016h.23242c30.77699 0 59.69505-11.95554 81.5293-33.66016 21.71809-21.70465 33.79687-50.60537 33.79687-81.36328-.11613-63.48898-51.79874-115.02148-115.21093-115.02148Zm.0371 31.08008h.12305c22.42432 0 43.50829 8.77586 59.35156 24.61914 15.96515 15.84327 24.73829 36.92722 24.73829 59.35156-.12186 22.42432-8.89501 43.50829-24.73829 59.35156-15.84327 15.84329-36.92842 24.61719-59.47461 24.61719-46.432994 0-84.091794-37.65765-84.091794-83.96875 0-46.31112 37.78067-83.9707 84.091794-83.9707Z" fill="#ff6700"/><path d="M1018.794 877.67602c-3.9001 7.47871-5.6641 11.10626-9.0439 20.7437h-.0509c-11.59714 33.19792-15.45331 81.32424 23.7552 136.53558 7.5953 10.6954 16.8067 21.6879 27.8909 32.855l1.4004 1.2895c25.41 26.3117 51.3485 73.86 49.4574 117.5563-1.7767 39.6563-19.0936 75.1395-45.7202 100.7937-28.6602 27.6136-68.1064 43.85-110.56881 41.9523h-.00195c-37.37881-1.5949-72.7614-16.9849-99.27589-43.3023-26.31523-26.1182-41.76389-60.8669-43.75731-97.6488v-.0137l-.10157-.9141c-5.69543-50.07-26.57888-94.1951-60.90717-130.2386-28.85205-30.2937-67.16643-54.3835-112.99395-70.45668-36.48364-12.75178-77.1179-20.30852-121.26197-20.61512-34.73628-.24127-77.8309 4.0191-123.07147 19.65429-40.49406 13.99478-76.09771 35.02631-103.22833 62.12221l-.01562.0156-.50391.6054c-16.06775 17.6856-35.89635 30.9521-57.76817 39.0897-18.56 6.9053-38.5913 10.217-59.04433 9.3018-21.04377-.947-41.20499-6.2692-59.51019-15.3135-16.379557-8.0928-31.273042-19.2458-43.983013-33.1338-16.457501-17.9829-28.10046-39.4422-34.222-62.3417-3.889463-14.54971-5.577952-29.56161-4.919563-45.01573.570124-13.23617 5.708207-30.23707 12.202563-45.85727 1.798907-4.32672 3.588843-8.20458 5.19832-11.58256.673963-1.41452 1.219187-2.93862 1.464815-4.41791 1.056896-6.36512-1.778891-13.08696-7.72136-16.2753l-.001926-.00103c-3.919935-2.09633-8.500446-2.39662-12.533295-1.12827-3.673005 1.15517-6.973489 3.77507-8.825102 7.36082-2.042997 3.95636-3.548455 7.2502-4.531089 9.4513-3.032674 6.7932-5.865893 14.12483-8.2949701 21.57795C2.6331385 918.17404.2247181 930.57051.01518977 945.62501c-.14001911 10.06031.69595111 20.14728 2.17805693 30.35515 2.047057 14.09892 6.2686064 28.25294 12.0144763 42.02694 7.995441 19.1667 19.306491 36.3883 33.31379 51.69 32.580379 35.591 77.000477 56.2481 125.218757 58.3535h.00195c2.69977.1 5.4057.2012 8.11719.2012 50.72695 0 98.65284-21.0566 132.73965-58.4551l-.01563.0176c34.71774-34.4274 84.79983-57.5565 138.88582-67.2845 56.87522-10.22968 119.38832-6.21044 176.39406 13.7942 39.74921 13.9517 95.82657 42.9834 129.07392 101.0682 12.21544 21.341 20.7525 45.772 23.89874 73.2385 2.61285 44.3061 20.70437 85.7564 52.83228 117.5821 31.98078 31.7825 74.48995 50.1822 119.60205 52.1874h.00391c2.69976.1 5.70567.1992 8.31762.1992 49.36677 0 94.48277-19.9281 127.31637-52.3976 31.2239-30.8776 51.3402-73.097 53.4414-120.3055 2.4166-54.2927-28.3458-110.4066-59.8324-142.0965l-2.0176-2.176c-8.7804-9.0232-16.3694-17.9689-22.7659-26.9795-14.483-20.40151-22.9051-41.33314-25.097-61.32105-1.7093-15.58703.1354-31.1339 5.5398-46.59103 1.8708-5.35483 4.1444-10.60904 6.7756-15.75133 3.8764-7.57592 1.7685-16.75678-5.6127-21.00026l-.0964-.05542c-7.508-4.3164-17.4456-1.92565-21.449 5.75081Z" fill="#ff6700"/><path d="M1243.039 425.42167c-22.9667.84144-42.2357 4.94426-61.5059 13.90672-7.4983 3.48739-10.6235 13.45806-6.7021 21.12512l.0024.00458c2.2458 4.28572 6.2118 7.14409 10.5488 8.03074 3.3818.69137 6.8987.13287 10.3366-1.41617 8.9647-4.03928 18.7877-7.11386 30.3314-8.93186 14.2011-2.23651 37.6511-2.80559 56.0972.44985 26.9574 4.88916 50.429 17.76511 69.5967 38.88767 14.4419 15.88884 25.1132 35.5881 31.307 56.77867 1.8005 7.34342 8.9599 13.17171 17.7863 11.56691l.0027-.0005c4.5892-.83441 8.2327-3.20186 10.5251-6.6726 2.2426-3.39522 3.1075-7.62777 2.0958-12.57601-7.3968-26.06398-20.5593-50.21126-38.7403-70.10233-29.1923-31.98429-68.9633-49.83039-111.375-51.04493h-.002c-7.1494-.22525-13.8846-.24108-20.3047-.00586Z" fill="#ff6700"/><path d="M1431.5536 792.31351c0-27.93463-22.5769-50.43748-50.6038-50.43748s-50.6042 22.50285-50.6042 50.43748c0 27.93461 22.5773 50.43752 50.6042 50.43752 28.0269 0 50.6038-22.50291 50.6038-50.43752Z" fill="#1cbac9"/></svg>