<svg xmlns="http://www.w3.org/2000/svg" width="1131" height="477.4" viewBox="0 0 1131 477.4"><g fill-rule="evenodd"><path d="M1131 128.8v28q-3.1 30-17.3 55.3-20.9 37.2-59 57.5-31 16.3-67.9 16-6.1-.2-6.3-.2H17.9q-14.6 0-17.9-14.6v-5q2.7-11.3 12.1-14 2.7-.9 16.6-.9h603.4q16.2 0 19-.2 30.8-1.7 55.1-20.7 18.3-14.3 28.2-35.4 2.5-5.2 6.7-17.7 11.3-32.2 34.1-97.6 5.7-15.7 14.8-29 5.2-7.7 11.9-14.6Q830.7 6.1 872 .8q6.9-.8 18.8-.8 54.1.3 108.1.8 6.6 0 11.3.8 28.3 4.4 52.6 19.1 28.3 17.3 46.2 45.1 18.2 28.1 22 63zm-130.4 33.7h-19.3V59.4h-53.7l-65.2 103.1v35.2h79.5v40.1h39.7v-40.1h19zm-58.7 0h-43.5L942.1 92ZM169.1 461.9v-135h69.6V315h23.8v11.9H333v117.6q0 4.3-1.4 8-1.4 3.5-4.9 6.5-3.4 2.9-9.6 2.9h-54.6v15h-23.8v-15zm24.1-21.7h45.5v-91.9h-45.5zm69.3-91.8v91.8h39.1q5.2 0 6.2-.9 1.1-1.1 1.1-4.6v-86.3Zm209.8 113.5L448.2 437l-25.9 27.6q-8.8 9.5-12.9 11.1-4.1 1.4-8.4 1.4h-33.1v-22.5h16.7q6.9 0 11.6-2.3 4.8-2.4 14.7-13.7l18.6-21.1-49.8-56.6 34.1.1 33.7 36.7L490 349l-122.1.1v-22.3h61.7l5.3-11.8h25.4l4.4 11.9h65.4V349h-6.9L467 415.6l21.2 25.3q8.9 10.7 13.7 12.2 4.9 1.5 7.9 1.5h15.8v22.6l-26.9-.1q-6.4 0-12.2-3.1-5.8-3.3-14.2-12.1zm93.1 15.5V314h163.7v142.2q0 5.2-1.1 9.4-1 4.2-4.5 8-3.4 3.8-20.9 3.8zm24.4-144.1v124.9h108.6q3.7 0 4.7-1.4t1-5.1V333.3Zm9.5 69.1v-18.3h33.3v-19.8h-33.3v-18.6h95.6v18.6h-38.7v19.8h38v18.3h-38v26.4h13.4l5.8-11.5H690l.6 11.5h6.8v18.4l-98.1-.1v-18.3h33.3v-26.4ZM832.8 474v-20.3h2.2q2.2 0 2.8-1.4.7-1.3 1.1-4.7l6.4-54.3h18.8l-7.9 65.2q-1 7.5-2.8 11.5-1.8 4-10.5 4zm36.2-94.4h-35.3v-20.9h89.7v20.9H890v78.3q0 11-3.8 15-3.7 4-14.3 4h-11.1v-20.2h3.6q2.7 0 3.6-1.1 1-1 1-5.2zm31.5 76.3-4.9-62.2h18.6l4 51.9q.3 4.7 1.2 6.1.9 1.3 3.3 1.3h3.2v20.3h-9.8q-4.4 0-8.1-1.5-3.7-1.5-5.4-5.5-1.6-4.2-2.1-10.4zm-136.8 21.4V314h65v50.7q0 7.4-1.3 12.3-1.2 4.9-4.2 6.8l-3.9 3q3.7 2.8 6 5.4 2.4 2.4 2.9 4.9.5 2.4.5 7v45.2q0 7.1-2.6 14-2.6 6.8-15.9 6.8h-25v7.2zm21.4-78.8v50.8h18.2q2.4 0 3.4-1.8t1-6.2v-34.9q0-5.7-1.2-6.7-1.1-1.2-4.6-1.2zm22.5-63.9h-22.5v43h16.7q3.5 0 4.7-1.1 1.1-1.1 1.1-7.7zM834 314h89.3v20.5H834Z"/></g><path d="M622.4 113.9q16.3-35.5 33.4-70.9 3.2-6.4 5.4-8.8 3.6-4.1 8.8-5.9 3.9-1.5 13.5-1.5H699.2q0 .2.1.2v.5Q664 102.2 629 176.4q-2.1 4.2-3.7 5.3-2.9 2.4-7.3-.1-1.1-.8-2.4-3.5l-1.4-3.4q-18.5-38.8-36.9-77.8-5.7-11.9-9-16.5-11.6-15.9-30.8-20.1-6.1-1.3-18.8-1.3H389.4q-10.7 0-15.5-7-4.6-6.6-2.1-14.5 2.1-6.7 9.1-9.7 2.7-1.3 7.3-1.3 72.5 0 145.1.3 17.3 0 19 .2 10.7 1.1 19.5 6.4 10 6.2 17.4 16.1 3.6 4.8 9.3 16.5 11.8 23.7 22.9 47.9.5.9 1 0zm-.2 80.6h1.3q6.9-.4 11.6-4.8 2.5-2.3 6.1-10 33-69.6 66.5-138.9 2.6-5.3 5.1-7.8 4-3.6 9-5.2 3.3-1 10.1-1h18.2l.1.2q.2.2.2.3v.2l-69.8 147q-1.4 3-6.4 14-5.2 10.8-6.9 13.7-6.1 9.8-14.6 15.3-23.6 15.4-49.7 6.3-20.1-7-29.3-27.3-19.4-41.3-38.5-82.8-1.6-3.4-2.5-4.9-2.2-3.4-5.8-4.8-2.1-.7-7.1-.7H513q-4.1 0-6.6 1-5.6 2.5-6.9 8.3-.1 1.4-.1 10.2V210q0 9.1-6.8 13.7-5.2 3.6-11.3 3.1-6.8-.5-11.3-6.1-2-2.7-2.8-6.3-.5-2-.5-6.8V88.4q.2-11.9 9.6-16.2 3.1-1.2 8.5-1.4 27.3-.6 38.9 0 28.3 1.8 40.5 27.5 18 37.9 35.9 75.6 5.3 11.3 7 13.3 5.2 6.2 14.2 7.4.3 0 .9-.1zM374.3 77.3q3.5-4.7 8.8-6 1.8-.5 10.2-.5h43.1q5 0 8 1.3 10 4.1 10 16.8v117.5q0 6.9-1.4 10.4-2.8 7.3-10 9.2-7.3 2.1-13.2-1.4-4.6-2.7-6.6-7.7-1.3-3.1-1.3-9.6v-92q0-7.6-5.8-10.5-2.8-1.5-9.4-1.5-8.8 0-17.6.2-13.2.3-17.4-11.1-2.9-7.9 2.6-15.1z"/><path fill="#e50000" fill-rule="evenodd" d="M227.9 193.4q-27.3-28.8-27.1-67.9 0-9.6 2-18.7 6.1-27.6 26.1-47.4 28.1-28.2 67.5-32.1 6-.5 19-.5h36.2q7.5 0 12.4 6.3 3.6 4.7 3.4 10.1 0 5.3-3.3 9.6-2.8 3.9-7.5 5.5-2.7.9-8.8.9h-31.4q-13.2 0-18.9.8-24.6 3.4-42.2 20.7-16.2 16-19 38.7-1.1 9.4.6 18.8 5.3 27.4 29.4 43.5 17.9 12.1 39.4 12.6 35.3.8 42.7.3 7.7-.3 12.6 3.5 5 3.7 6.3 10.2 1.2 7-3.8 13.2-2.7 3.1-6.8 4.5-2.5.8-7.7.8h-34.8q-12.8 0-18.9-.6-37.1-4.1-64.9-30-.7-.6-1.4-1.4-.8-1-1.1-1.4zM271 83.7q16.1-12.7 38-12.9h41.1q4 0 7.4 1.4 3.5 1.5 5.8 4.3 3.5 3.9 4 8.9.4 4.8-1.8 9.3-4.2 8.8-15.4 8.8h-36.6q-9.5 0-13.6 1.4-5.7 2.1-9.9 6.5-4 4.2-5.5 9.9-2.5 9.2 3 17.9 4.5 6.9 12.2 9.5 4.1 1.5 13.5 1.5h37.1q9.1 0 14.1 6.9 2.5 3.3 3 7.4.3 3.7-1.1 7.6-2.3 6.6-8.6 9.3-3.6 1.4-12 1.4h-38.1q-21.9 0-39-15-17.9-15.8-19-38.7-.8-17.3 8.6-31.4 5.2-7.9 12.8-14z"/><path d="M190.9 197.9q5.6 4.6 6.2 11.2.7 6.1-3.1 11.3-3.5 4.8-9.6 6.1-1.7.3-11 .3h-28.9q-13 0-19-.6-22.9-2.4-43.3-13.8-17.5-9.9-30-25.5-19.4-23.9-21.4-54-.8-9.6.6-18.9 3.2-22.7 16.2-41.4Q60 54.8 79.3 43q21.2-12.7 45.6-15.5 6.1-.7 18.8-.7h28.6q11.2 0 13.2.5 7.4 1.9 10.7 9.8 2 4.7.3 10.3-2.3 7.6-8.8 10.4-3.3 1.4-11 1.4h-30.1q-13.4 0-18.9.8-22.8 3-39.9 18.2-15.9 14.2-20.6 34.7-2 9.3-1.4 18.7 1.7 21.9 16.4 38.2 16.9 19 42.2 23.6 6.3 1.1 18.9 1.2 19 .2 38 0 5.3 0 9.6 3.3zm3.6-40.5q6.3 8.9-.3 18.8-4.4 6.3-13.1 6.3-21.8.3-43.8.3-17.8 0-33-10.3-20.1-13.5-24-36.6-2.5-14 2.3-27.4 3.2-8.5 9.5-16.1 13.8-16.9 35.6-20.6 5.7-1 18.9-1h33.3q3.7 0 7.2 1.3 3.4 1.4 5.8 4.1 3.6 3.7 4.2 8.8.7 4.8-1.5 9.2-2.5 5.7-8.2 8-3.3 1.3-10.8 1.3h-33.3q-9.5 0-13.5 1.4-4.9 1.7-8.7 5.2-3.6 3.3-5.6 8-4 9.4.3 18.2 3.4 6.9 10 10.7 4.6 2.5 9.9 3.2h44.6q4.6 0 8.2 1.8 3.3 1.8 6 5.4z"/></svg>